<?xml version="1.0" standalone="no"?>
<!DOCTYPE svg PUBLIC "-//W3C//DTD SVG 20010904//EN"
 "http://www.w3.org/TR/2001/REC-SVG-20010904/DTD/svg10.dtd">
<svg version="1.0" xmlns="http://www.w3.org/2000/svg"
 width="300.000000pt" height="121.000000pt" viewBox="0 0 300.000000 121.000000"
 preserveAspectRatio="xMidYMid meet">
<metadata>
Created by potrace 1.10, written by Peter Selinger 2001-2011
</metadata>
<g transform="translate(0.000000,121.000000) scale(0.100000,-0.100000)"
fill="#000000" stroke="none">
<path d="M1484 1039 c-3 -5 6 -9 20 -9 14 0 27 4 30 9 3 5 -6 9 -19 9 -14 0
-28 -4 -31 -9z"/>
<path d="M901 1006 c-7 -9 -11 -42 -9 -87 2 -55 7 -74 21 -83 24 -15 51 3 55
38 2 18 -1 26 -12 26 -10 0 -16 -9 -16 -25 0 -14 -4 -25 -10 -25 -6 0 -10 32
-10 75 0 43 4 75 10 75 6 0 10 -11 10 -25 0 -16 6 -25 15 -25 18 0 20 41 3 58
-16 16 -43 15 -57 -2z"/>
<path d="M1001 1006 c-7 -9 -11 -42 -9 -87 2 -55 7 -74 21 -83 12 -8 22 -8 35
0 13 9 18 28 20 83 3 76 -6 101 -38 101 -10 0 -23 -6 -29 -14z m39 -81 c0 -43
-4 -75 -10 -75 -6 0 -10 32 -10 75 0 43 4 75 10 75 6 0 10 -32 10 -75z"/>
<path d="M1100 932 l0 -90 30 -4 c20 -3 30 0 30 9 0 7 -7 13 -15 13 -10 0 -15
11 -16 38 -1 20 -2 55 -3 76 0 22 -7 41 -13 43 -10 4 -13 -18 -13 -85z"/>
<path d="M1180 926 l0 -91 35 0 c21 0 35 5 35 13 0 6 -9 12 -20 12 -16 0 -20
7 -20 30 0 23 4 30 20 30 11 0 20 5 20 10 0 6 -9 10 -20 10 -15 0 -20 7 -20
25 0 19 5 25 21 25 34 0 16 24 -19 26 l-32 2 0 -92z"/>
<path d="M1283 1013 c-9 -3 -13 -31 -13 -89 0 -81 1 -84 25 -90 15 -4 32 -1
40 6 20 16 20 60 0 60 -9 0 -15 -9 -15 -25 0 -14 -4 -25 -10 -25 -6 0 -10 32
-10 75 0 43 4 75 10 75 6 0 10 -11 10 -25 0 -16 6 -25 15 -25 17 0 20 23 5 51
-10 18 -31 23 -57 12z"/>
<path d="M1383 1013 c-20 -7 -18 -157 2 -173 12 -10 13 -16 4 -26 -9 -11 -8
-14 5 -14 9 0 16 7 16 15 0 8 9 19 20 25 24 13 28 60 5 60 -9 0 -15 -9 -15
-25 0 -14 -4 -25 -10 -25 -6 0 -10 32 -10 75 0 43 4 75 10 75 6 0 10 -11 10
-25 0 -16 6 -25 15 -25 9 0 15 9 15 23 0 38 -29 56 -67 40z"/>
<path d="M1586 1012 c-10 -17 -9 -163 2 -174 6 -6 22 -8 36 -4 25 6 26 9 26
90 0 67 -3 85 -16 90 -22 8 -42 7 -48 -2z m42 -93 c-2 -36 -7 -63 -13 -62 -11
3 -19 107 -10 131 12 33 26 -7 23 -69z"/>
<path d="M1752 1007 c-5 -7 -12 -40 -16 -75 -4 -35 -10 -70 -13 -78 -3 -8 1
-14 10 -14 8 0 18 11 21 25 7 28 26 25 26 -5 0 -10 7 -21 16 -24 15 -6 16 2
10 66 -4 40 -9 80 -12 90 -6 21 -30 30 -42 15z m28 -73 c0 -13 -4 -24 -10 -24
-5 0 -10 14 -10 31 0 17 4 28 10 24 6 -3 10 -17 10 -31z"/>
<path d="M1837 1013 c-3 -5 -4 -18 -2 -29 2 -10 4 -50 4 -87 1 -43 5 -66 11
-62 6 3 10 24 10 46 0 52 23 48 30 -5 3 -20 9 -38 15 -39 13 -3 7 74 -7 91 -7
8 -7 12 1 12 6 0 11 16 11 35 0 21 -5 35 -12 35 -7 0 -23 3 -34 6 -12 3 -24 2
-27 -3z m51 -49 c-5 -28 -28 -29 -28 -1 0 13 3 27 7 31 10 10 25 -10 21 -30z"/>
<path d="M1953 1013 c-15 -6 -18 -168 -4 -177 5 -3 22 -3 38 0 26 5 28 8 25
45 -3 30 -8 39 -23 39 -16 0 -17 -3 -8 -19 14 -22 4 -60 -12 -44 -13 13 -7
139 6 136 6 -1 11 -11 13 -23 5 -31 22 -24 22 9 0 34 -23 48 -57 34z"/>
<path d="M2051 1006 c-7 -9 -11 -42 -9 -87 2 -55 7 -74 21 -83 12 -8 22 -8 35
0 13 9 18 28 20 83 3 76 -6 101 -38 101 -10 0 -23 -6 -29 -14z m39 -81 c0 -43
-4 -75 -10 -75 -6 0 -10 32 -10 75 0 43 4 75 10 75 6 0 10 -32 10 -75z"/>
<path d="M2218 953 c-3 -64 -4 -66 -11 -28 -5 22 -10 50 -13 63 -3 15 -12 22
-27 22 -21 0 -22 -3 -19 -85 4 -101 21 -114 23 -17 l1 67 12 -65 c9 -56 14
-65 34 -68 21 -3 22 -1 22 87 0 106 -18 124 -22 24z"/>
<path d="M2299 1013 c-12 -3 -18 -21 -23 -66 -4 -34 -10 -72 -13 -84 -4 -16
-1 -23 10 -23 9 0 17 10 19 22 4 31 28 35 28 5 0 -14 7 -27 15 -31 18 -6 18 3
5 99 -11 75 -16 84 -41 78z m12 -106 c-8 -8 -11 0 -10 29 1 39 1 39 11 11 7
-21 7 -32 -1 -40z"/>
<path d="M2380 930 c0 -87 1 -90 25 -96 43 -11 55 10 55 97 0 64 -3 79 -15 79
-12 0 -15 -16 -15 -80 0 -47 -4 -80 -10 -80 -11 0 -14 35 -10 111 1 34 -2 48
-14 52 -14 6 -16 -6 -16 -83z"/>
<path d="M2474 1008 c-3 -5 2 -11 10 -14 13 -5 16 -22 16 -80 0 -59 3 -74 15
-74 12 0 15 15 15 75 0 60 3 75 15 75 8 0 15 6 15 13 0 14 -78 18 -86 5z"/>
<path d="M2587 1013 c-3 -5 -8 -39 -12 -77 -4 -38 -9 -75 -12 -83 -3 -7 2 -13
10 -13 9 0 17 10 19 22 5 32 28 35 28 4 0 -17 5 -26 16 -26 14 0 16 9 10 63
-12 101 -17 117 -37 117 -10 0 -20 -3 -22 -7z m25 -105 c-9 -9 -12 -1 -11 33
l1 44 11 -33 c7 -24 7 -36 -1 -44z"/>
<path d="M1486 988 c-17 -79 -22 -147 -10 -152 7 -3 14 7 18 25 7 36 22 38 30
4 4 -14 12 -25 19 -25 10 0 11 16 1 83 -7 45 -13 83 -13 85 -1 1 -10 2 -21 2
-12 0 -21 -8 -24 -22z m34 -53 c0 -13 -4 -27 -10 -30 -6 -4 -10 8 -10 30 0 22
4 34 10 30 6 -3 10 -17 10 -30z"/>
<path d="M391 986 c-7 -8 -10 -24 -6 -35 7 -24 -9 -89 -29 -116 -12 -17 -16
-17 -31 -5 -26 22 -54 85 -52 116 2 24 -2 30 -22 32 -43 6 -58 -52 -17 -67 23
-9 66 -78 66 -106 0 -29 -101 -7 -138 31 -30 29 -65 19 -70 -19 -4 -33 27 -52
53 -33 16 11 28 10 77 -6 32 -11 58 -26 58 -33 0 -18 -86 -65 -120 -65 -35 0
-58 -25 -43 -48 16 -26 53 -28 60 -2 4 13 28 32 64 51 32 16 61 29 64 29 9 0
6 -49 -6 -96 -9 -33 -17 -46 -35 -50 -29 -7 -31 -34 -5 -58 16 -14 23 -15 41
-6 19 10 21 18 16 50 -7 45 19 140 39 140 17 0 77 -108 64 -116 -16 -9 -10
-43 10 -54 31 -16 51 -12 60 12 12 32 3 55 -27 68 -33 13 -79 97 -63 113 14
14 121 -19 121 -37 0 -25 25 -37 54 -26 29 11 34 36 12 65 -12 17 -17 18 -40
7 -22 -10 -36 -9 -79 6 -31 10 -52 23 -52 32 0 24 75 61 111 55 37 -6 57 12
52 47 -5 34 -54 38 -69 5 -10 -21 -84 -67 -109 -67 -13 0 -13 45 0 91 7 24 18
39 31 42 16 4 20 12 17 34 -3 32 -37 43 -57 19z m-21 -231 c0 -20 -5 -25 -25
-25 -20 0 -25 5 -25 25 0 20 5 25 25 25 20 0 25 -5 25 -25z"/>
<path d="M670 907 c-37 -19 -37 -43 2 -67 40 -24 61 -25 94 -4 28 19 51 7 41
-20 -5 -12 -21 -16 -66 -16 -56 0 -84 -11 -62 -24 5 -4 45 -8 89 -9 60 -2 85
-8 108 -24 16 -11 52 -32 80 -47 l52 -27 -4 -52 c-2 -29 -6 -63 -9 -77 -2 -14
-1 -47 3 -75 l7 -50 102 0 c94 0 125 -6 110 -21 -3 -3 -48 -8 -99 -11 -68 -4
-109 -1 -149 10 -29 8 -88 23 -129 32 -53 11 -84 24 -105 44 -64 60 -112 80
-100 41 7 -23 2 -25 -26 -10 -14 8 -23 7 -33 -2 -19 -19 -30 -58 -17 -58 6 0
11 -7 11 -15 0 -26 99 -63 155 -58 17 1 44 -4 60 -11 17 -8 69 -30 117 -49 86
-35 86 -35 185 -27 54 5 121 9 149 10 l51 0 49 -75 c33 -50 60 -80 83 -91 38
-18 204 -30 485 -33 250 -3 235 11 -78 74 -246 50 -248 50 -279 85 -31 35 -32
35 -116 35 -54 0 -85 4 -88 11 -3 8 28 14 94 19 90 6 105 4 188 -22 76 -24
104 -28 180 -25 67 2 93 6 102 18 10 14 17 14 70 -2 193 -57 369 -113 523
-165 96 -32 181 -59 188 -59 41 0 -24 91 -83 116 -16 7 -41 24 -54 38 -16 17
-35 26 -55 26 -18 0 -62 18 -105 43 -118 68 -120 69 -177 76 -30 4 -57 11 -60
14 -6 6 77 47 95 47 4 0 45 16 91 36 47 20 119 49 160 64 172 64 205 79 208
93 4 21 -51 41 -90 32 -18 -4 -66 -8 -106 -9 -55 -1 -77 -5 -85 -17 -21 -28
-70 -46 -143 -52 -79 -6 -136 -26 -172 -60 -17 -16 -41 -23 -90 -28 -60 -5
-73 -3 -129 23 -85 40 -159 46 -243 20 -68 -21 -120 -19 -120 3 0 7 28 37 63
67 l62 54 279 47 c153 26 283 50 288 53 37 23 -86 32 -473 36 -278 3 -249 10
-363 -91 -38 -33 -74 -61 -80 -60 -6 0 -23 8 -37 17 -102 65 -233 133 -275
142 -70 15 -99 28 -185 82 -80 51 -99 55 -139 35z m276 -131 c115 -39 344
-160 330 -174 -11 -10 47 -62 70 -62 24 0 39 -14 47 -48 8 -32 -1 -52 -24 -52
-10 0 -19 -7 -19 -15 0 -8 7 -15 16 -15 12 0 14 -9 12 -37 -3 -35 -6 -38 -36
-41 -40 -4 -61 18 -62 64 0 30 -2 31 -42 30 -51 -1 -82 10 -73 25 5 7 25 8 56
4 55 -8 66 6 17 20 -45 14 -50 38 -7 33 30 -3 34 0 37 24 2 19 -2 28 -17 33
-12 3 -33 22 -47 41 -15 19 -31 34 -36 34 -5 0 -7 -4 -3 -9 26 -43 -103 37
-141 87 -11 14 -15 15 -23 3 -5 -8 -14 -10 -22 -6 -41 23 -109 71 -109 78 0
10 -3 10 76 -17z m856 -48 c-11 -11 -249 -23 -286 -14 -60 15 -19 26 112 28
151 3 188 0 174 -14z m-172 -47 c0 -24 -105 -29 -136 -6 -17 13 -12 14 59 15
42 0 77 -4 77 -9z m-70 -41 c13 -7 12 -10 -3 -16 -26 -10 -88 3 -106 22 -15
15 -12 15 39 9 30 -4 62 -11 70 -15z m-83 -31 c29 -11 39 -29 15 -29 -34 0
-82 22 -82 37 0 14 10 13 67 -8z m-382 -13 c10 -15 14 -33 10 -49 -9 -33 11
-44 36 -21 14 13 22 15 31 6 14 -14 4 -41 -19 -49 -10 -3 -27 -14 -38 -23 -11
-10 -35 -21 -52 -25 -30 -6 -33 -4 -32 17 1 13 -2 38 -6 56 -8 33 2 41 23 20
9 -9 12 -8 12 4 0 9 6 18 12 20 8 3 4 9 -10 17 -12 6 -22 21 -22 31 0 28 36
26 55 -4z m335 -52 c118 -65 140 -70 208 -55 130 30 146 27 338 -64 62 -30
117 -55 120 -55 4 0 15 -7 24 -15 10 -9 41 -18 71 -21 35 -4 68 -16 94 -33 22
-15 65 -40 95 -55 54 -28 93 -56 87 -62 -5 -5 -166 41 -224 65 -29 11 -59 18
-67 15 -9 -3 -29 4 -45 15 -16 12 -40 21 -53 21 -36 0 -126 33 -232 85 -101
49 -106 51 -106 33 1 -27 59 -76 111 -94 43 -15 49 -19 30 -22 -13 -2 -45 2
-70 8 -91 24 -202 60 -231 75 -16 8 -48 15 -72 15 -40 1 -42 2 -24 15 11 8 28
15 38 15 10 0 18 7 18 15 0 20 -6 19 -68 -12 -40 -20 -55 -24 -64 -15 -9 9 -9
15 0 24 18 18 15 73 -5 90 -10 9 -36 24 -57 34 -22 11 -41 25 -44 32 -5 16 21
5 128 -54z m1107 50 c29 -8 20 -24 -13 -24 -15 0 -24 6 -24 15 0 17 4 18 37 9z
m-57 -34 c0 -5 -12 -13 -27 -16 -16 -4 -62 -22 -104 -40 -157 -67 -216 -84
-264 -77 -47 6 -52 23 -7 23 48 0 70 10 65 29 -6 25 49 46 112 44 28 -1 75 7
105 17 89 30 120 35 120 20z m-1775 -120 l29 -30 -27 0 c-15 0 -44 7 -65 16
-35 15 -36 16 -18 30 29 21 49 17 81 -16z m199 -58 c44 -9 81 -23 84 -29 6
-20 -59 -16 -103 7 -22 11 -45 20 -52 20 -6 0 -15 5 -18 10 -8 13 -7 12 89 -8z
m339 -37 c1 -6 -29 -11 -73 -11 -66 -2 -69 -1 -23 5 28 3 55 10 59 14 10 10
35 5 37 -8z m257 -89 c0 -17 -21 -26 -63 -27 -27 0 -29 -2 -12 -9 11 -5 39 -6
63 -3 34 4 42 2 42 -11 0 -13 -11 -16 -49 -16 -62 0 -81 7 -81 30 0 11 -6 22
-12 27 -8 5 6 10 37 14 28 3 56 7 63 7 6 1 12 -4 12 -12z m1050 -91 c26 -27
19 -31 -29 -14 -32 11 -40 24 -18 32 20 9 23 8 47 -18z m-872 -15 c61 -7 112
-17 112 -21 0 -10 -245 0 -303 13 -26 5 -50 14 -53 19 -7 11 97 7 244 -11z"/>
<path d="M663 655 c-7 -20 2 -29 21 -22 9 4 13 13 10 22 -8 19 -23 19 -31 0z"/>
<path d="M745 640 c-7 -12 2 -30 16 -30 12 0 12 27 0 35 -5 3 -12 1 -16 -5z"/>
</g>
</svg>
