<?xml version="1.0" standalone="no"?>
<!DOCTYPE svg PUBLIC "-//W3C//DTD SVG 20010904//EN"
 "http://www.w3.org/TR/2001/REC-SVG-20010904/DTD/svg10.dtd">
<svg version="1.0" xmlns="http://www.w3.org/2000/svg"
 width="392.000000pt" height="392.000000pt" viewBox="0 0 392.000000 392.000000"
 preserveAspectRatio="xMidYMid meet">
<metadata>
Created by potrace 1.11, written by Peter Selinger 2001-2013
</metadata>
<g transform="translate(0.000000,392.000000) scale(0.100000,-0.100000)"
fill="#000000" stroke="none">
<path d="M2385 3838 c-51 -18 -113 -66 -144 -111 -73 -107 -67 -236 16 -345
22 -29 25 -44 24 -95 -5 -218 -102 -523 -233 -733 l-51 -82 -76 -5 c-42 -2
-81 -1 -87 4 -6 5 -14 6 -17 2 -4 -3 -7 0 -7 8 0 8 -12 25 -26 38 -126 120
-286 416 -349 648 l-22 81 21 44 c28 59 29 186 2 241 -107 217 -407 221 -514
7 -26 -51 -30 -69 -28 -127 3 -82 5 -87 39 -145 45 -78 143 -138 223 -138 31
0 46 -10 124 -88 112 -112 219 -278 302 -467 15 -35 58 -177 58 -193 0 -8 -17
-34 -37 -57 -21 -23 -50 -56 -64 -73 -28 -33 -16 -32 -176 -17 -186 17 -477
122 -654 237 -45 28 -64 49 -81 85 -29 63 -103 134 -161 155 -59 22 -168 19
-218 -6 -103 -49 -162 -138 -165 -249 -4 -93 17 -148 80 -211 64 -63 125 -86
218 -82 77 4 122 23 179 75 l44 39 78 -3 c230 -11 519 -111 719 -249 l55 -37
6 -66 6 -65 -42 -42 c-161 -155 -376 -281 -612 -358 -106 -34 -130 -39 -148
-29 -12 7 -40 22 -62 34 -31 17 -57 21 -120 22 -70 0 -86 -4 -134 -30 -103
-57 -159 -161 -148 -276 6 -73 36 -131 92 -184 57 -53 116 -74 202 -71 140 4
251 103 269 239 6 43 13 54 81 117 181 169 505 326 713 347 38 4 50 0 73 -21
14 -13 40 -33 57 -42 16 -10 30 -25 31 -34 2 -39 -2 -159 -7 -200 -14 -121
-73 -333 -125 -448 -50 -111 -149 -262 -172 -262 -21 0 -99 -64 -124 -103 -41
-62 -52 -100 -49 -175 5 -119 60 -197 174 -250 46 -21 65 -24 121 -20 80 6
133 29 186 83 62 62 80 106 80 200 0 89 -14 126 -70 192 l-33 39 4 115 c5 165
11 201 70 399 31 104 132 330 166 371 9 11 37 19 79 24 l65 7 69 -74 c39 -40
94 -109 122 -153 29 -44 59 -88 68 -97 8 -10 13 -18 9 -18 -3 0 8 -24 24 -52
48 -88 91 -202 116 -305 23 -96 23 -99 6 -143 -41 -106 -9 -247 72 -315 158
-134 388 -78 461 113 69 176 -75 382 -266 382 -28 0 -44 11 -97 63 -34 34 -81
87 -104 117 -22 30 -43 57 -46 60 -12 11 -90 148 -127 225 -44 88 -73 160 -99
246 l-17 57 38 45 c21 25 47 48 58 51 31 8 223 -1 287 -13 200 -37 397 -112
534 -202 54 -35 67 -50 86 -97 44 -105 131 -170 241 -179 57 -5 169 19 169 36
0 5 8 11 18 13 27 7 89 88 107 138 45 129 -12 275 -135 344 -44 25 -68 31
-123 33 -78 2 -114 -8 -176 -50 -40 -27 -52 -30 -125 -30 -174 -1 -332 27
-522 94 -94 33 -259 111 -283 134 -15 14 -19 95 -7 133 10 32 148 156 240 215
171 112 329 183 484 217 l84 18 61 -29 c225 -107 471 110 391 347 -63 187
-297 253 -451 128 -39 -32 -50 -51 -115 -191 -15 -31 -142 -158 -207 -206 -31
-23 -58 -44 -61 -47 -3 -3 -16 -11 -30 -19 -14 -8 -62 -36 -108 -63 -99 -57
-188 -97 -298 -133 l-81 -27 -58 59 -58 58 0 101 c1 210 83 481 204 679 65
106 67 108 122 129 71 27 128 75 162 136 26 48 30 65 30 135 0 64 -5 89 -23
124 -52 99 -152 161 -257 160 -33 0 -73 -5 -90 -11z"/>
</g>
</svg>
