<svg width="1124" height="661" xmlns="http://www.w3.org/2000/svg"><g><path d="M-94,-20L-118,238L-81,3Z" fill="#ba252e" stroke="#ba252e"/><path d="M-94,-20L-81,3L58,-19Z" fill="#a6002a" stroke="#a6002a"/><path d="M-94,-20L58,-19L150,-120Z" fill="#a50929" stroke="#a50929"/><path d="M58,-19L-81,3L30,90Z" fill="#c20c2a" stroke="#c20c2a"/><path d="M58,-19L30,90L132,54Z" fill="#db252b" stroke="#db252b"/><path d="M58,-19L132,54L150,-120Z" fill="#c21c2c" stroke="#c21c2c"/><path d="M150,-120L132,54L277,-50Z" fill="#c83135" stroke="#c83135"/><path d="M150,-120L277,-50L505,-80Z" fill="#b95848" stroke="#b95848"/><path d="M150,-120L505,-80L768,-96Z" fill="#b37a6c" stroke="#b37a6c"/><path d="M277,-50L132,54L232,141Z" fill="#f5513a" stroke="#f5513a"/><path d="M277,-50L232,141L358,104Z" fill="#fd7147" stroke="#fd7147"/><path d="M277,-50L358,104L448,38Z" fill="#f17353" stroke="#f17353"/><path d="M277,-50L448,38L446,-36Z" fill="#da6c58" stroke="#da6c58"/><path d="M277,-50L446,-36L505,-80Z" fill="#c7705c" stroke="#c7705c"/><path d="M446,-36L448,38L505,-80Z" fill="#d6796b" stroke="#d6796b"/><path d="M505,-80L448,38L512,82Z" fill="#e98371" stroke="#e98371"/><path d="M505,-80L512,82L604,57Z" fill="#e6876f" stroke="#e6876f"/><path d="M505,-80L604,57L664,-11Z" fill="#ce7962" stroke="#ce7962"/><path d="M505,-80L664,-11L768,-96Z" fill="#a97456" stroke="#a97456"/><path d="M664,-11L604,57L774,47Z" fill="#cd7f52" stroke="#cd7f52"/><path d="M664,-11L774,47L768,-96Z" fill="#a66a4b" stroke="#a66a4b"/><path d="M768,-96L774,47L952,-52Z" fill="#815c46" stroke="#815c46"/><path d="M768,-96L952,-52L1040,-67Z" fill="#4d4c3e" stroke="#4d4c3e"/><path d="M952,-52L774,47L893,100Z" fill="#916444" stroke="#916444"/><path d="M952,-52L893,100L1072,32Z" fill="#764c38" stroke="#764c38"/><path d="M952,-52L1072,32L1040,-67Z" fill="#553432" stroke="#553432"/><path d="M1040,-67L1072,32L1085,-14Z" fill="#5b2a2d" stroke="#5b2a2d"/><path d="M1040,-67L1085,-14L1294,-2Z" fill="#551924" stroke="#551924"/><path d="M1085,-14L1072,32L1123,47Z" fill="#6d2e2a" stroke="#6d2e2a"/><path d="M1085,-14L1123,47L1270,22Z" fill="#6c1c21" stroke="#6c1c21"/><path d="M1085,-14L1270,22L1294,-2Z" fill="#64081a" stroke="#64081a"/><path d="M1294,-2L1270,22L1268,160Z" fill="#801d17" stroke="#801d17"/><path d="M1294,-2L1268,160L1272,326Z" fill="#805c34" stroke="#805c34"/><path d="M1294,-2L1272,326L1296,604Z" fill="#80806e" stroke="#80806e"/><path d="M-81,3L-118,238L30,90Z" fill="#c43b38" stroke="#c43b38"/><path d="M30,90L-118,238L-79,258Z" fill="#c56e53" stroke="#c56e53"/><path d="M30,90L-79,258L48,227Z" fill="#d26c52" stroke="#d26c52"/><path d="M30,90L48,227L132,54Z" fill="#e3543d" stroke="#e3543d"/><path d="M132,54L48,227L232,141Z" fill="#f07147" stroke="#f07147"/><path d="M358,104L232,141L286,151Z" fill="#fe9b5a" stroke="#fe9b5a"/><path d="M358,104L286,151L392,243Z" fill="#febf6e" stroke="#febf6e"/><path d="M358,104L392,243L427,151Z" fill="#ffcb78" stroke="#ffcb78"/><path d="M358,104L427,151L448,38Z" fill="#ffa468" stroke="#ffa468"/><path d="M448,38L427,151L512,82Z" fill="#ffa773" stroke="#ffa773"/><path d="M512,82L427,151L574,126Z" fill="#ffbf86" stroke="#ffbf86"/><path d="M512,82L574,126L604,57Z" fill="#f6a971" stroke="#f6a971"/><path d="M604,57L574,126L697,189Z" fill="#e9ba6d" stroke="#e9ba6d"/><path d="M604,57L697,189L774,47Z" fill="#d9a35b" stroke="#d9a35b"/><path d="M774,47L697,189L787,217Z" fill="#c7bc65" stroke="#c7bc65"/><path d="M774,47L787,217L877,185Z" fill="#b4b362" stroke="#b4b362"/><path d="M774,47L877,185L893,100Z" fill="#a79454" stroke="#a79454"/><path d="M893,100L877,185L1069,230Z" fill="#89a85c" stroke="#89a85c"/><path d="M893,100L1069,230L1121,124Z" fill="#80884c" stroke="#80884c"/><path d="M893,100L1121,124L1072,32Z" fill="#805f39" stroke="#805f39"/><path d="M1072,32L1121,124L1123,47Z" fill="#80422b" stroke="#80422b"/><path d="M1123,47L1121,124L1270,22Z" fill="#803021" stroke="#803021"/><path d="M1270,22L1121,124L1268,160Z" fill="#803c27" stroke="#803c27"/><path d="M-118,238L-68,826L-81,651Z" fill="#454c3b" stroke="#454c3b"/><path d="M-118,238L-81,651L-80,494Z" fill="#85764f" stroke="#85764f"/><path d="M-118,238L-80,494L-28,396Z" fill="#b88061" stroke="#b88061"/><path d="M-118,238L-28,396L-79,258Z" fill="#c08083" stroke="#c08083"/><path d="M48,227L-79,258L-28,396Z" fill="#cd8082" stroke="#cd8082"/><path d="M48,227L-28,396L98,358Z" fill="#dc8978" stroke="#dc8978"/><path d="M48,227L98,358L176,342Z" fill="#ec9982" stroke="#ec9982"/><path d="M48,227L176,342L232,141Z" fill="#f2a56c" stroke="#f2a56c"/><path d="M232,141L176,342L255,332Z" fill="#fabc87" stroke="#fabc87"/><path d="M232,141L255,332L286,151Z" fill="#fcba6f" stroke="#fcba6f"/><path d="M286,151L255,332L392,243Z" fill="#fed886" stroke="#fed886"/><path d="M427,151L392,243L484,262Z" fill="#ffeb96" stroke="#ffeb96"/><path d="M427,151L484,262L574,126Z" fill="#ffe495" stroke="#ffe495"/><path d="M574,126L484,262L706,243Z" fill="#f1ed93" stroke="#f1ed93"/><path d="M574,126L706,243L697,189Z" fill="#e1dd7a" stroke="#e1dd7a"/><path d="M697,189L706,243L787,217Z" fill="#cee17e" stroke="#cee17e"/><path d="M787,217L706,243L774,272Z" fill="#c6e789" stroke="#c6e789"/><path d="M787,217L774,272L877,185Z" fill="#b4d87e" stroke="#b4d87e"/><path d="M877,185L774,272L933,357Z" fill="#a2d691" stroke="#a2d691"/><path d="M877,185L933,357L1021,283Z" fill="#8ac68a" stroke="#8ac68a"/><path d="M877,185L1021,283L1069,230Z" fill="#84b86f" stroke="#84b86f"/><path d="M1069,230L1021,283L1169,307Z" fill="#80a578" stroke="#80a578"/><path d="M1069,230L1169,307L1121,124Z" fill="#80955a" stroke="#80955a"/><path d="M1121,124L1169,307L1268,160Z" fill="#807c48" stroke="#807c48"/><path d="M1268,160L1169,307L1272,326Z" fill="#808161" stroke="#808161"/><path d="M98,358L-28,396L113,468Z" fill="#cb8e57" stroke="#cb8e57"/><path d="M98,358L113,468L128,407Z" fill="#d59b57" stroke="#d59b57"/><path d="M98,358L128,407L176,342Z" fill="#eca168" stroke="#eca168"/><path d="M176,342L128,407L208,496Z" fill="#dbac5e" stroke="#dbac5e"/><path d="M176,342L208,496L255,332Z" fill="#ecb96c" stroke="#ecb96c"/><path d="M255,332L208,496L321,407Z" fill="#e4c86c" stroke="#e4c86c"/><path d="M255,332L321,407L392,243Z" fill="#fedb98" stroke="#fedb98"/><path d="M392,243L321,407L373,420Z" fill="#ffe491" stroke="#ffe491"/><path d="M392,243L373,420L484,262Z" fill="#fff1b6" stroke="#fff1b6"/><path d="M484,262L373,420L504,467Z" fill="#f4f79d" stroke="#f4f79d"/><path d="M484,262L504,467L715,450Z" fill="#e5fb99" stroke="#e5fb99"/><path d="M484,262L715,450L706,243Z" fill="#e7f5ab" stroke="#e7f5ab"/><path d="M706,243L715,450L774,272Z" fill="#ceea9c" stroke="#ceea9c"/><path d="M774,272L715,450L768,460Z" fill="#b7e77c" stroke="#b7e77c"/><path d="M774,272L768,460L913,409Z" fill="#a9de7e" stroke="#a9de7e"/><path d="M774,272L913,409L933,357Z" fill="#9ed487" stroke="#9ed487"/><path d="M933,357L913,409L978,420Z" fill="#79c76d" stroke="#79c76d"/><path d="M933,357L978,420L1021,283Z" fill="#85be78" stroke="#85be78"/><path d="M1021,283L978,420L1120,407Z" fill="#7bb06a" stroke="#7bb06a"/><path d="M1021,283L1120,407L1169,307Z" fill="#80a173" stroke="#80a173"/><path d="M1169,307L1120,407L1246,376Z" fill="#7e8f5b" stroke="#7e8f5b"/><path d="M1169,307L1246,376L1272,326Z" fill="#808362" stroke="#808362"/><path d="M1272,326L1246,376L1249,515Z" fill="#6a8044" stroke="#6a8044"/><path d="M1272,326L1249,515L1296,604Z" fill="#3c703b" stroke="#3c703b"/><path d="M-28,396L-80,494L113,468Z" fill="#a27850" stroke="#a27850"/><path d="M113,468L-80,494L7,585Z" fill="#7a6748" stroke="#7a6748"/><path d="M113,468L7,585L163,607Z" fill="#786b40" stroke="#786b40"/><path d="M113,468L163,607L208,496Z" fill="#928b4f" stroke="#928b4f"/><path d="M113,468L208,496L128,407Z" fill="#be9d57" stroke="#be9d57"/><path d="M321,407L208,496L252,514Z" fill="#bfbb65" stroke="#bfbb65"/><path d="M321,407L252,514L373,420Z" fill="#d1d270" stroke="#d1d270"/><path d="M373,420L252,514L433,575Z" fill="#abcb71" stroke="#abcb71"/><path d="M373,420L433,575L494,484Z" fill="#b3e085" stroke="#b3e085"/><path d="M373,420L494,484L504,467Z" fill="#cbee8f" stroke="#cbee8f"/><path d="M504,467L494,484L625,548Z" fill="#a9e790" stroke="#a9e790"/><path d="M504,467L625,548L715,450Z" fill="#a3e57f" stroke="#a3e57f"/><path d="M715,450L625,548L753,499Z" fill="#87d970" stroke="#87d970"/><path d="M715,450L753,499L768,460Z" fill="#8ddc70" stroke="#8ddc70"/><path d="M768,460L753,499L964,563Z" fill="#59c467" stroke="#59c467"/><path d="M768,460L964,563L913,409Z" fill="#5ac567" stroke="#5ac567"/><path d="M913,409L964,563L978,420Z" fill="#50b960" stroke="#50b960"/><path d="M978,420L964,563L1082,590Z" fill="#209850" stroke="#209850"/><path d="M978,420L1082,590L1120,407Z" fill="#429e53" stroke="#429e53"/><path d="M1120,407L1082,590L1249,515Z" fill="#2c7e43" stroke="#2c7e43"/><path d="M1120,407L1249,515L1246,376Z" fill="#5c8643" stroke="#5c8643"/><path d="M-80,494L-81,651L7,585Z" fill="#4d4a39" stroke="#4d4a39"/><path d="M7,585L-81,651L77,688Z" fill="#532b2a" stroke="#532b2a"/><path d="M7,585L77,688L163,607Z" fill="#67462e" stroke="#67462e"/><path d="M208,496L163,607L252,514Z" fill="#8d9352" stroke="#8d9352"/><path d="M252,514L163,607L280,638Z" fill="#7f844a" stroke="#7f844a"/><path d="M252,514L280,638L433,575Z" fill="#86a55b" stroke="#86a55b"/><path d="M433,575L280,638L433,725Z" fill="#7f9255" stroke="#7f9255"/><path d="M433,575L433,725L461,703Z" fill="#7f945e" stroke="#7f945e"/><path d="M433,575L461,703L496,705Z" fill="#809a65" stroke="#809a65"/><path d="M433,575L496,705L625,548Z" fill="#7eb97c" stroke="#7eb97c"/><path d="M433,575L625,548L494,484Z" fill="#94dc8f" stroke="#94dc8f"/><path d="M625,548L496,705L618,679Z" fill="#73a464" stroke="#73a464"/><path d="M625,548L618,679L744,651Z" fill="#60a458" stroke="#60a458"/><path d="M625,548L744,651L753,499Z" fill="#5fbc60" stroke="#5fbc60"/><path d="M753,499L744,651L949,590Z" fill="#3aa757" stroke="#3aa757"/><path d="M753,499L949,590L964,563Z" fill="#27a858" stroke="#27a858"/><path d="M949,590L744,651L882,691Z" fill="#248143" stroke="#248143"/><path d="M949,590L882,691L967,631Z" fill="#0c763e" stroke="#0c763e"/><path d="M949,590L967,631L964,563Z" fill="#0a8445" stroke="#0a8445"/><path d="M964,563L967,631L1082,590Z" fill="#047940" stroke="#047940"/><path d="M1082,590L967,631L1036,786Z" fill="#00502a" stroke="#00502a"/><path d="M1082,590L1036,786L1168,648Z" fill="#003e21" stroke="#003e21"/><path d="M1082,590L1168,648L1249,515Z" fill="#05582f" stroke="#05582f"/><path d="M1249,515L1168,648L1296,604Z" fill="#044525" stroke="#044525"/><path d="M-81,651L-68,826L77,688Z" fill="#4d0516" stroke="#4d0516"/><path d="M77,688L-68,826L56,820Z" fill="#580513" stroke="#580513"/><path d="M77,688L56,820L140,811Z" fill="#691614" stroke="#691614"/><path d="M77,688L140,811L163,607Z" fill="#6f2e1f" stroke="#6f2e1f"/><path d="M163,607L140,811L301,723Z" fill="#7a3e26" stroke="#7a3e26"/><path d="M163,607L301,723L280,638Z" fill="#7c693b" stroke="#7c693b"/><path d="M280,638L301,723L433,725Z" fill="#7f7040" stroke="#7f7040"/><path d="M461,703L433,725L496,705Z" fill="#808359" stroke="#808359"/><path d="M496,705L433,725L531,834Z" fill="#807c5a" stroke="#807c5a"/><path d="M496,705L531,834L614,790Z" fill="#797d57" stroke="#797d57"/><path d="M496,705L614,790L618,679Z" fill="#747e51" stroke="#747e51"/><path d="M618,679L614,790L744,651Z" fill="#617f44" stroke="#617f44"/><path d="M744,651L614,790L760,821Z" fill="#566e37" stroke="#566e37"/><path d="M744,651L760,821L882,691Z" fill="#3a6735" stroke="#3a6735"/><path d="M882,691L760,821L894,751Z" fill="#295a2f" stroke="#295a2f"/><path d="M882,691L894,751L967,631Z" fill="#0f6133" stroke="#0f6133"/><path d="M967,631L894,751L1036,786Z" fill="#074625" stroke="#074625"/><path d="M1168,648L1036,786L1148,816Z" fill="#001e10" stroke="#001e10"/><path d="M1168,648L1148,816L1235,726Z" fill="#000f08" stroke="#000f08"/><path d="M1168,648L1235,726L1296,604Z" fill="#002514" stroke="#002514"/><path d="M-68,826L531,834L56,820Z" fill="#762d1d" stroke="#762d1d"/><path d="M56,820L531,834L140,811Z" fill="#7c4327" stroke="#7c4327"/><path d="M140,811L531,834L301,723Z" fill="#7f5c34" stroke="#7f5c34"/><path d="M301,723L531,834L433,725Z" fill="#7f7249" stroke="#7f7249"/><path d="M531,834L1148,816L760,821Z" fill="#355f32" stroke="#355f32"/><path d="M531,834L760,821L614,790Z" fill="#677542" stroke="#677542"/><path d="M760,821L1148,816L1036,786Z" fill="#053e21" stroke="#053e21"/><path d="M760,821L1036,786L894,751Z" fill="#16502a" stroke="#16502a"/></g></svg>